<svg width="345" height="50" viewBox="0 0 345 50" fill="none" xmlns="http://www.w3.org/2000/svg">
<rect width="345" height="50" rx="20" fill="white"/>
<path d="M147.693 19.292C149.747 19.292 151.243 19.6953 152.181 20.502C153.12 21.3087 153.589 22.4453 153.589 23.912C153.589 24.5573 153.479 25.1807 153.259 25.782C153.054 26.3687 152.709 26.8967 152.225 27.366C151.741 27.8353 151.096 28.2093 150.289 28.488C149.483 28.752 148.493 28.884 147.319 28.884H145.515V35H143.535V19.292H147.693ZM147.517 20.986H145.515V27.19H147.099C148.097 27.19 148.925 27.0873 149.585 26.882C150.245 26.662 150.737 26.3173 151.059 25.848C151.382 25.3787 151.543 24.7627 151.543 24C151.543 22.988 151.221 22.2327 150.575 21.734C149.93 21.2353 148.911 20.986 147.517 20.986ZM161.058 23.01C162.495 23.01 163.558 23.3253 164.248 23.956C164.937 24.5867 165.282 25.5913 165.282 26.97V35H163.874L163.5 33.328H163.412C163.074 33.7533 162.722 34.1127 162.356 34.406C162.004 34.6847 161.593 34.89 161.124 35.022C160.669 35.154 160.112 35.22 159.452 35.22C158.748 35.22 158.11 35.0953 157.538 34.846C156.98 34.5967 156.54 34.2153 156.218 33.702C155.895 33.174 155.734 32.514 155.734 31.722C155.734 30.5487 156.196 29.6467 157.12 29.016C158.044 28.3707 159.466 28.0187 161.388 27.96L163.39 27.894V27.19C163.39 26.2073 163.177 25.5253 162.752 25.144C162.326 24.7627 161.725 24.572 160.948 24.572C160.332 24.572 159.745 24.6673 159.188 24.858C158.63 25.034 158.11 25.2393 157.626 25.474L157.032 24.022C157.545 23.7433 158.154 23.5087 158.858 23.318C159.562 23.1127 160.295 23.01 161.058 23.01ZM161.63 29.302C160.163 29.3607 159.144 29.5953 158.572 30.006C158.014 30.4167 157.736 30.996 157.736 31.744C157.736 32.404 157.934 32.888 158.33 33.196C158.74 33.504 159.261 33.658 159.892 33.658C160.889 33.658 161.718 33.3867 162.378 32.844C163.038 32.2867 163.368 31.436 163.368 30.292V29.236L161.63 29.302ZM178.78 23.208V35H177.196L176.91 33.438H176.822C176.572 33.8487 176.25 34.186 175.854 34.45C175.458 34.714 175.025 34.9047 174.556 35.022C174.086 35.154 173.595 35.22 173.082 35.22C172.143 35.22 171.351 35.0733 170.706 34.78C170.075 34.472 169.598 34.0027 169.276 33.372C168.953 32.7413 168.792 31.9273 168.792 30.93V23.208H170.75V30.798C170.75 31.7367 170.962 32.4407 171.388 32.91C171.813 33.3793 172.473 33.614 173.368 33.614C174.248 33.614 174.937 33.4527 175.436 33.13C175.949 32.7927 176.308 32.3087 176.514 31.678C176.734 31.0327 176.844 30.2553 176.844 29.346V23.208H178.78ZM190.201 31.744C190.201 32.5067 190.011 33.1447 189.629 33.658C189.248 34.1713 188.705 34.56 188.001 34.824C187.297 35.088 186.461 35.22 185.493 35.22C184.672 35.22 183.961 35.154 183.359 35.022C182.773 34.89 182.252 34.7067 181.797 34.472V32.712C182.267 32.9467 182.831 33.1667 183.491 33.372C184.166 33.5627 184.848 33.658 185.537 33.658C186.52 33.658 187.231 33.504 187.671 33.196C188.111 32.8733 188.331 32.448 188.331 31.92C188.331 31.6267 188.251 31.3627 188.089 31.128C187.928 30.8933 187.635 30.6587 187.209 30.424C186.799 30.1893 186.205 29.9253 185.427 29.632C184.665 29.3387 184.012 29.0453 183.469 28.752C182.927 28.4587 182.509 28.1067 182.215 27.696C181.922 27.2853 181.775 26.7573 181.775 26.112C181.775 25.1147 182.179 24.3447 182.985 23.802C183.807 23.2593 184.877 22.988 186.197 22.988C186.916 22.988 187.583 23.0613 188.199 23.208C188.83 23.34 189.417 23.5307 189.959 23.78L189.299 25.32C188.977 25.1733 188.632 25.0487 188.265 24.946C187.913 24.8287 187.554 24.7407 187.187 24.682C186.821 24.6087 186.447 24.572 186.065 24.572C185.273 24.572 184.665 24.704 184.239 24.968C183.829 25.2173 183.623 25.562 183.623 26.002C183.623 26.3247 183.719 26.6033 183.909 26.838C184.1 27.058 184.415 27.278 184.855 27.498C185.31 27.7033 185.911 27.9527 186.659 28.246C187.407 28.5247 188.045 28.8107 188.573 29.104C189.101 29.3973 189.505 29.7567 189.783 30.182C190.062 30.5927 190.201 31.1133 190.201 31.744ZM197.605 22.988C198.617 22.988 199.482 23.208 200.201 23.648C200.934 24.088 201.491 24.7113 201.873 25.518C202.269 26.31 202.467 27.2413 202.467 28.312V29.478H194.393C194.422 30.8127 194.759 31.832 195.405 32.536C196.065 33.2253 196.981 33.57 198.155 33.57C198.903 33.57 199.563 33.504 200.135 33.372C200.721 33.2253 201.323 33.02 201.939 32.756V34.45C201.337 34.714 200.743 34.9047 200.157 35.022C199.57 35.154 198.873 35.22 198.067 35.22C196.952 35.22 195.962 34.9927 195.097 34.538C194.246 34.0833 193.579 33.4087 193.095 32.514C192.625 31.6047 192.391 30.4973 192.391 29.192C192.391 27.9013 192.603 26.794 193.029 25.87C193.469 24.946 194.077 24.2347 194.855 23.736C195.647 23.2373 196.563 22.988 197.605 22.988ZM197.583 24.572C196.659 24.572 195.925 24.8727 195.383 25.474C194.855 26.0607 194.539 26.882 194.437 27.938H200.443C200.443 27.2633 200.34 26.6767 200.135 26.178C199.929 25.6793 199.614 25.2907 199.189 25.012C198.778 24.7187 198.243 24.572 197.583 24.572Z" fill="black"/>
</svg>
