<svg width="158" height="51" viewBox="0 0 158 51" fill="none" xmlns="http://www.w3.org/2000/svg">
<rect width="158" height="51" rx="20" fill="#67BD70"/>
<path d="M22.6361 26.46H27.5761V33.46C26.8028 33.7133 26.0228 33.9 25.2361 34.02C24.4494 34.14 23.5561 34.2 22.5561 34.2C21.0761 34.2 19.8294 33.9067 18.8161 33.32C17.8028 32.72 17.0294 31.8733 16.4961 30.78C15.9761 29.6733 15.7161 28.3667 15.7161 26.86C15.7161 25.3667 16.0094 24.0733 16.5961 22.98C17.1828 21.8867 18.0228 21.04 19.1161 20.44C20.2228 19.8267 21.5561 19.52 23.1161 19.52C23.9161 19.52 24.6694 19.5933 25.3761 19.74C26.0961 19.8867 26.7628 20.0933 27.3761 20.36L26.6961 21.92C26.1894 21.6933 25.6161 21.5 24.9761 21.34C24.3494 21.18 23.6961 21.1 23.0161 21.1C21.8828 21.1 20.9094 21.3333 20.0961 21.8C19.2828 22.2667 18.6628 22.9333 18.2361 23.8C17.8094 24.6533 17.5961 25.6733 17.5961 26.86C17.5961 27.9933 17.7761 29 18.1361 29.88C18.5094 30.7467 19.0894 31.4267 19.8761 31.92C20.6628 32.4 21.6961 32.64 22.9761 32.64C23.4028 32.64 23.7761 32.6267 24.0961 32.6C24.4294 32.56 24.7294 32.5133 24.9961 32.46C25.2761 32.4067 25.5361 32.3533 25.7761 32.3V28.06H22.6361V26.46ZM40.0669 28.62C40.0669 29.5133 39.9469 30.3067 39.7069 31C39.4802 31.68 39.1469 32.26 38.7069 32.74C38.2802 33.22 37.7535 33.5867 37.1269 33.84C36.5135 34.08 35.8269 34.2 35.0669 34.2C34.3602 34.2 33.7069 34.08 33.1069 33.84C32.5069 33.5867 31.9869 33.22 31.5469 32.74C31.1069 32.26 30.7602 31.68 30.5069 31C30.2669 30.3067 30.1469 29.5133 30.1469 28.62C30.1469 27.4333 30.3469 26.4333 30.7469 25.62C31.1469 24.7933 31.7202 24.1667 32.4669 23.74C33.2135 23.3 34.1002 23.08 35.1269 23.08C36.1002 23.08 36.9535 23.3 37.6869 23.74C38.4335 24.1667 39.0135 24.7933 39.4269 25.62C39.8535 26.4333 40.0669 27.4333 40.0669 28.62ZM31.9669 28.62C31.9669 29.46 32.0735 30.1933 32.2869 30.82C32.5135 31.4333 32.8602 31.9067 33.3269 32.24C33.7935 32.5733 34.3869 32.74 35.1069 32.74C35.8269 32.74 36.4202 32.5733 36.8869 32.24C37.3535 31.9067 37.6935 31.4333 37.9069 30.82C38.1335 30.1933 38.2469 29.46 38.2469 28.62C38.2469 27.7667 38.1335 27.04 37.9069 26.44C37.6802 25.84 37.3335 25.38 36.8669 25.06C36.4135 24.7267 35.8202 24.56 35.0869 24.56C33.9935 24.56 33.2002 24.92 32.7069 25.64C32.2135 26.36 31.9669 27.3533 31.9669 28.62ZM52.1762 28.62C52.1762 29.5133 52.0563 30.3067 51.8163 31C51.5896 31.68 51.2563 32.26 50.8163 32.74C50.3896 33.22 49.8629 33.5867 49.2363 33.84C48.6229 34.08 47.9363 34.2 47.1763 34.2C46.4696 34.2 45.8163 34.08 45.2163 33.84C44.6163 33.5867 44.0963 33.22 43.6562 32.74C43.2163 32.26 42.8696 31.68 42.6163 31C42.3763 30.3067 42.2563 29.5133 42.2563 28.62C42.2563 27.4333 42.4563 26.4333 42.8563 25.62C43.2563 24.7933 43.8296 24.1667 44.5763 23.74C45.3229 23.3 46.2096 23.08 47.2363 23.08C48.2096 23.08 49.0629 23.3 49.7963 23.74C50.5429 24.1667 51.1229 24.7933 51.5363 25.62C51.9629 26.4333 52.1762 27.4333 52.1762 28.62ZM44.0763 28.62C44.0763 29.46 44.1829 30.1933 44.3963 30.82C44.6229 31.4333 44.9696 31.9067 45.4363 32.24C45.9029 32.5733 46.4963 32.74 47.2163 32.74C47.9363 32.74 48.5296 32.5733 48.9963 32.24C49.4629 31.9067 49.8029 31.4333 50.0163 30.82C50.2429 30.1933 50.3563 29.46 50.3563 28.62C50.3563 27.7667 50.2429 27.04 50.0163 26.44C49.7896 25.84 49.4429 25.38 48.9763 25.06C48.5229 24.7267 47.9296 24.56 47.1963 24.56C46.1029 24.56 45.3096 24.92 44.8163 25.64C44.3229 26.36 44.0763 27.3533 44.0763 28.62ZM58.7656 34.2C57.4323 34.2 56.3656 33.74 55.5656 32.82C54.7656 31.8867 54.3656 30.5 54.3656 28.66C54.3656 26.82 54.7656 25.4333 55.5656 24.5C56.379 23.5533 57.4523 23.08 58.7856 23.08C59.3456 23.08 59.8323 23.1533 60.2456 23.3C60.659 23.4333 61.019 23.62 61.3256 23.86C61.6323 24.1 61.8923 24.3667 62.1056 24.66H62.2256C62.2123 24.4867 62.1856 24.2333 62.1456 23.9C62.119 23.5533 62.1056 23.28 62.1056 23.08V18.8H63.8656V34H62.4456L62.1856 32.56H62.1056C61.8923 32.8667 61.6323 33.1467 61.3256 33.4C61.019 33.64 60.6523 33.8333 60.2256 33.98C59.8123 34.1267 59.3256 34.2 58.7656 34.2ZM59.0456 32.74C60.179 32.74 60.9723 32.4333 61.4256 31.82C61.8923 31.1933 62.1256 30.2533 62.1256 29V28.68C62.1256 27.3467 61.9056 26.3267 61.4656 25.62C61.0256 24.9 60.2123 24.54 59.0256 24.54C58.079 24.54 57.3656 24.92 56.8856 25.68C56.419 26.4267 56.1856 27.4333 56.1856 28.7C56.1856 29.98 56.419 30.9733 56.8856 31.68C57.3656 32.3867 58.0856 32.74 59.0456 32.74ZM75.6848 19.72C77.5515 19.72 78.9115 20.0867 79.7648 20.82C80.6182 21.5533 81.0448 22.5867 81.0448 23.92C81.0448 24.5067 80.9448 25.0733 80.7448 25.62C80.5582 26.1533 80.2448 26.6333 79.8048 27.06C79.3648 27.4867 78.7782 27.8267 78.0448 28.08C77.3115 28.32 76.4115 28.44 75.3448 28.44H73.7048V34H71.9048V19.72H75.6848ZM75.5248 21.26H73.7048V26.9H75.1448C76.0515 26.9 76.8048 26.8067 77.4048 26.62C78.0048 26.42 78.4515 26.1067 78.7448 25.68C79.0382 25.2533 79.1848 24.6933 79.1848 24C79.1848 23.08 78.8915 22.3933 78.3048 21.94C77.7182 21.4867 76.7915 21.26 75.5248 21.26ZM93.0942 28.62C93.0942 29.5133 92.9742 30.3067 92.7342 31C92.5076 31.68 92.1742 32.26 91.7342 32.74C91.3076 33.22 90.7809 33.5867 90.1542 33.84C89.5409 34.08 88.8542 34.2 88.0942 34.2C87.3876 34.2 86.7342 34.08 86.1342 33.84C85.5342 33.5867 85.0142 33.22 84.5742 32.74C84.1342 32.26 83.7876 31.68 83.5342 31C83.2942 30.3067 83.1742 29.5133 83.1742 28.62C83.1742 27.4333 83.3742 26.4333 83.7742 25.62C84.1742 24.7933 84.7476 24.1667 85.4942 23.74C86.2409 23.3 87.1276 23.08 88.1542 23.08C89.1276 23.08 89.9809 23.3 90.7142 23.74C91.4609 24.1667 92.0409 24.7933 92.4542 25.62C92.8809 26.4333 93.0942 27.4333 93.0942 28.62ZM84.9942 28.62C84.9942 29.46 85.1009 30.1933 85.3142 30.82C85.5409 31.4333 85.8876 31.9067 86.3542 32.24C86.8209 32.5733 87.4142 32.74 88.1342 32.74C88.8542 32.74 89.4476 32.5733 89.9142 32.24C90.3809 31.9067 90.7209 31.4333 90.9342 30.82C91.1609 30.1933 91.2742 29.46 91.2742 28.62C91.2742 27.7667 91.1609 27.04 90.9342 26.44C90.7076 25.84 90.3609 25.38 89.8942 25.06C89.4409 24.7267 88.8476 24.56 88.1142 24.56C87.0209 24.56 86.2276 24.92 85.7342 25.64C85.2409 26.36 84.9942 27.3533 84.9942 28.62ZM102.864 31.04C102.864 31.7333 102.69 32.3133 102.344 32.78C101.997 33.2467 101.504 33.6 100.864 33.84C100.224 34.08 99.4636 34.2 98.5836 34.2C97.8369 34.2 97.1903 34.14 96.6436 34.02C96.1103 33.9 95.6369 33.7333 95.2236 33.52V31.92C95.6503 32.1333 96.1636 32.3333 96.7636 32.52C97.3769 32.6933 97.9969 32.78 98.6236 32.78C99.5169 32.78 100.164 32.64 100.564 32.36C100.964 32.0667 101.164 31.68 101.164 31.2C101.164 30.9333 101.09 30.6933 100.944 30.48C100.797 30.2667 100.53 30.0533 100.144 29.84C99.7703 29.6267 99.2303 29.3867 98.5236 29.12C97.8303 28.8533 97.2369 28.5867 96.7436 28.32C96.2503 28.0533 95.8703 27.7333 95.6036 27.36C95.3369 26.9867 95.2036 26.5067 95.2036 25.92C95.2036 25.0133 95.5703 24.3133 96.3036 23.82C97.0503 23.3267 98.0236 23.08 99.2236 23.08C99.8769 23.08 100.484 23.1467 101.044 23.28C101.617 23.4 102.15 23.5733 102.644 23.8L102.044 25.2C101.75 25.0667 101.437 24.9533 101.104 24.86C100.784 24.7533 100.457 24.6733 100.124 24.62C99.7903 24.5533 99.4503 24.52 99.1036 24.52C98.3836 24.52 97.8303 24.64 97.4436 24.88C97.0703 25.1067 96.8836 25.42 96.8836 25.82C96.8836 26.1133 96.9703 26.3667 97.1436 26.58C97.3169 26.78 97.6036 26.98 98.0036 27.18C98.4169 27.3667 98.9636 27.5933 99.6436 27.86C100.324 28.1133 100.904 28.3733 101.384 28.64C101.864 28.9067 102.23 29.2333 102.484 29.62C102.737 29.9933 102.864 30.4667 102.864 31.04ZM109.034 32.76C109.301 32.76 109.574 32.74 109.854 32.7C110.134 32.6467 110.361 32.5933 110.534 32.54V33.88C110.347 33.9733 110.081 34.0467 109.734 34.1C109.387 34.1667 109.054 34.2 108.734 34.2C108.174 34.2 107.654 34.1067 107.174 33.92C106.707 33.72 106.327 33.38 106.034 32.9C105.741 32.42 105.594 31.7467 105.594 30.88V24.64H104.074V23.8L105.614 23.1L106.314 20.82H107.354V23.28H110.454V24.64H107.354V30.84C107.354 31.4933 107.507 31.98 107.814 32.3C108.134 32.6067 108.541 32.76 109.034 32.76ZM121.64 23.28V34H120.2L119.94 32.58H119.86C119.634 32.9533 119.34 33.26 118.98 33.5C118.62 33.74 118.227 33.9133 117.8 34.02C117.374 34.14 116.927 34.2 116.46 34.2C115.607 34.2 114.887 34.0667 114.3 33.8C113.727 33.52 113.294 33.0933 113 32.52C112.707 31.9467 112.56 31.2067 112.56 30.3V23.28H114.34V30.18C114.34 31.0333 114.534 31.6733 114.92 32.1C115.307 32.5267 115.907 32.74 116.72 32.74C117.52 32.74 118.147 32.5933 118.6 32.3C119.067 31.9933 119.394 31.5533 119.58 30.98C119.78 30.3933 119.88 29.6867 119.88 28.86V23.28H121.64ZM130.044 23.08C130.244 23.08 130.457 23.0933 130.684 23.12C130.924 23.1333 131.13 23.16 131.304 23.2L131.084 24.82C130.91 24.78 130.717 24.7467 130.504 24.72C130.304 24.6933 130.11 24.68 129.924 24.68C129.51 24.68 129.117 24.7667 128.744 24.94C128.37 25.1133 128.037 25.36 127.744 25.68C127.45 25.9867 127.217 26.36 127.044 26.8C126.884 27.24 126.804 27.7333 126.804 28.28V34H125.044V23.28H126.484L126.684 25.24H126.764C126.99 24.84 127.264 24.48 127.584 24.16C127.904 23.8267 128.27 23.5667 128.684 23.38C129.097 23.18 129.55 23.08 130.044 23.08ZM137.055 23.08C137.975 23.08 138.762 23.28 139.415 23.68C140.082 24.08 140.588 24.6467 140.935 25.38C141.295 26.1 141.475 26.9467 141.475 27.92V28.98H134.135C134.162 30.1933 134.468 31.12 135.055 31.76C135.655 32.3867 136.488 32.7 137.555 32.7C138.235 32.7 138.835 32.64 139.355 32.52C139.888 32.3867 140.435 32.2 140.995 31.96V33.5C140.448 33.74 139.908 33.9133 139.375 34.02C138.842 34.14 138.208 34.2 137.475 34.2C136.462 34.2 135.562 33.9933 134.775 33.58C134.002 33.1667 133.395 32.5533 132.955 31.74C132.528 30.9133 132.315 29.9067 132.315 28.72C132.315 27.5467 132.508 26.54 132.895 25.7C133.295 24.86 133.848 24.2133 134.555 23.76C135.275 23.3067 136.108 23.08 137.055 23.08ZM137.035 24.52C136.195 24.52 135.528 24.7933 135.035 25.34C134.555 25.8733 134.268 26.62 134.175 27.58H139.635C139.635 26.9667 139.542 26.4333 139.355 25.98C139.168 25.5267 138.882 25.1733 138.495 24.92C138.122 24.6533 137.635 24.52 137.035 24.52Z" fill="white"/>
</svg>
